<svg width="18" height="20" viewBox="0 0 18 20" fill="none" xmlns="http://www.w3.org/2000/svg">
<path fill-rule="evenodd" clip-rule="evenodd" d="M5.49774 2.25836H12.502C15.0527 2.25836 16.4927 3.81443 16.5002 6.55793V14.0923C16.5002 16.8349 15.0527 18.3918 12.502 18.3918H5.49774C2.94699 18.3918 1.50024 16.8349 1.50024 14.0923V6.55793C1.50024 3.81443 2.94699 2.25836 5.49774 2.25836ZM9.03704 15.0522C9.36029 15.0522 9.62954 14.7941 9.65954 14.4472V6.22719C9.68954 5.97712 9.57779 5.72625 9.37529 5.58992C9.16454 5.45278 8.90954 5.45278 8.70779 5.58992C8.50454 5.72625 8.39279 5.97712 8.41454 6.22719V14.4472C8.45279 14.7941 8.72204 15.0522 9.03704 15.0522ZM12.4878 15.0522C12.8028 15.0522 13.072 14.7941 13.1103 14.4472V11.8013C13.132 11.5424 13.0203 11.3012 12.817 11.164C12.6153 11.0269 12.3603 11.0269 12.1503 11.164C11.947 11.3012 11.8353 11.5424 11.8653 11.8013V14.4472C11.8953 14.7941 12.1645 15.0522 12.4878 15.0522ZM6.16452 14.4472C6.13452 14.7941 5.86527 15.0522 5.54202 15.0522C5.21952 15.0522 4.94952 14.7941 4.92027 14.4472V8.87308C4.89777 8.6222 5.00952 8.37294 5.21277 8.23581C5.41452 8.09867 5.67027 8.09867 5.87277 8.23581C6.07452 8.37294 6.18777 8.6222 6.16452 8.87308V14.4472Z" fill="#288434"/>
</svg>
