<svg width="18" height="20" viewBox="0 0 18 20" fill="none" xmlns="http://www.w3.org/2000/svg">
<path fill-rule="evenodd" clip-rule="evenodd" d="M13.3267 6.7614H16.5C16.5 4.02096 14.9733 2.42004 12.3867 2.42004H5.61333C3.02667 2.42004 1.5 4.02096 1.5 6.72644V12.6338C1.5 15.3392 3.02667 16.9402 5.61333 16.9402H12.3867C14.9733 16.9402 16.5 15.3392 16.5 12.6338V12.3821H13.3267C11.8539 12.3821 10.66 11.1301 10.66 9.58572C10.66 8.04133 11.8539 6.78936 13.3267 6.78936V6.7614ZM13.3265 7.96384H15.9399C16.2492 7.96384 16.4999 8.22675 16.4999 8.55107V10.5924C16.4963 10.9152 16.2477 11.1759 15.9399 11.1797H13.3865C12.641 11.1902 11.989 10.6549 11.8199 9.89332C11.7352 9.42059 11.8541 8.93277 12.1447 8.56062C12.4353 8.18846 12.8679 7.97002 13.3265 7.96384ZM13.4399 10.1101H13.6866C14.0032 10.1101 14.2599 9.84088 14.2599 9.50883C14.2599 9.17679 14.0032 8.90762 13.6866 8.90762H13.4399C13.2884 8.90575 13.1426 8.96753 13.0349 9.07917C12.9272 9.19081 12.8665 9.34303 12.8666 9.50184C12.8665 9.83504 13.1222 10.1062 13.4399 10.1101ZM5.05343 6.7614H9.28677C9.60341 6.7614 9.8601 6.49223 9.8601 6.16019C9.8601 5.82814 9.60341 5.55897 9.28677 5.55897H5.05343C4.73938 5.55895 4.48375 5.82389 4.4801 6.1532C4.48008 6.48639 4.73572 6.75757 5.05343 6.7614Z" fill="#A6C8AD"/>
</svg>
