<svg width="18" height="20" viewBox="0 0 18 20" fill="none" xmlns="http://www.w3.org/2000/svg">
<path d="M12.375 0C11.2275 0 10.2375 0.845943 9.63 2.12694C10.6425 3.43211 11.25 5.22067 11.25 7.27511C11.25 7.97603 11.1825 8.60444 11.0475 9.23286C11.475 9.49873 11.9025 9.69209 12.375 9.69209C14.2425 9.69209 15.75 7.5168 15.75 4.85813C15.75 2.19945 14.2425 0.0241698 12.375 0.0241698V0ZM5.625 2.41698C3.7575 2.41698 2.25 4.59226 2.25 7.25094C2.25 9.90961 3.7575 12.0849 5.625 12.0849C7.4925 12.0849 9 9.90961 9 7.25094C9 4.59226 7.4925 2.41698 5.625 2.41698ZM16.3125 10.0546C15.345 11.2873 14.0175 12.0366 12.51 12.0849C13.1175 13.0033 13.5 14.1152 13.5 15.3236V16.9189H18V12.9067C18 11.6498 17.3025 10.5622 16.3125 10.0305V10.0546ZM1.6875 12.4716C0.6975 13.0033 0 14.091 0 15.3478V19.36H11.25V15.3478C11.25 14.091 10.5525 13.0033 9.5625 12.4716C8.55 13.7526 7.1775 14.5019 5.625 14.5019C4.0725 14.5019 2.7 13.7284 1.6875 12.4716Z" fill="#A6C8AD"/>
</svg>
