<svg width="19" height="20" viewBox="0 0 19 20" fill="none" xmlns="http://www.w3.org/2000/svg">
<path d="M0.972817 0.00654507C0.670249 0.0749831 0.399304 0.310536 0.219587 0.661386C0.039871 1.01224 -0.0338956 1.44964 0.0145153 1.87738C0.0629262 2.30512 0.229549 2.68815 0.477729 2.94221C0.725909 3.19628 1.03532 3.30056 1.33788 3.23212H4.76039L4.96574 4.03851L5.90122 8.07049L6.83671 12.1025C6.92798 12.5218 7.31586 12.9088 7.61248 12.9088H15.5983C15.9178 12.9088 16.2828 12.5218 16.3741 12.1025L18.2222 4.03851C18.3135 3.61919 18.1766 3.23212 17.8572 3.23212H7.72656L6.85953 0.909706C6.76718 0.643143 6.62459 0.417776 6.44745 0.258422C6.27032 0.0990692 6.06552 0.0119109 5.85559 0.00654507L1.29225 0.00654507C1.22394 -0.00218169 1.15521 -0.00218169 1.0869 0.00654507C1.04131 0.00267089 0.995592 0.00267089 0.95 0.00654507L0.972817 0.00654507ZM8.18289 16.1344C7.54403 16.1344 7.04206 16.8441 7.04206 17.7472C7.04206 18.6504 7.54403 19.36 8.18289 19.36C8.82176 19.36 9.32373 18.6504 9.32373 17.7472C9.32373 16.8441 8.82176 16.1344 8.18289 16.1344ZM15.0279 16.1344C14.389 16.1344 13.8871 16.8441 13.8871 17.7472C13.8871 18.6504 14.389 19.36 15.0279 19.36C15.6668 19.36 16.1687 18.6504 16.1687 17.7472C16.1687 16.8441 15.6668 16.1344 15.0279 16.1344Z" fill="#A6C8AD"/>
</svg>
